<svg width="20" height="16" viewBox="0 0 20 16" fill="none" xmlns="http://www.w3.org/2000/svg">
<path fill-rule="evenodd" clip-rule="evenodd" d="M6.15347 10.6581H15.7583C15.8749 10.658 15.9887 10.6217 16.0838 10.5541C16.1789 10.4866 16.2507 10.3911 16.2892 10.281L18.8367 3.02112C18.8667 2.93621 18.8759 2.84534 18.8635 2.75614C18.8512 2.66693 18.8176 2.582 18.7655 2.50848C18.7135 2.43497 18.6446 2.375 18.5646 2.33363C18.4846 2.29227 18.3959 2.2707 18.3058 2.27075H5.92461C5.77535 2.27075 5.6322 2.33004 5.52666 2.43558C5.42112 2.54112 5.36182 2.68427 5.36182 2.83353C5.36182 2.98279 5.42112 3.12593 5.52666 3.23148C5.6322 3.33702 5.77535 3.39631 5.92461 3.39631H17.5123L15.3606 9.53251H6.56243L4.3657 2.6722C4.1955 2.06669 3.80901 1.5447 3.27953 1.20521C2.72238 0.871295 2.05266 0.801885 1.29103 0.998859C1.1465 1.03617 1.02271 1.12938 0.946896 1.25796C0.871081 1.38655 0.849452 1.53998 0.886767 1.68451C0.924082 1.82905 1.01728 1.95284 1.14587 2.02865C1.27445 2.10447 1.42789 2.12609 1.57242 2.08878C2.89496 1.74548 3.23263 2.76412 3.28703 2.96672L3.29829 3.00424L5.61695 10.266C5.65319 10.3798 5.72471 10.4792 5.82117 10.5497C5.91762 10.6202 6.03401 10.6581 6.15347 10.6581ZM7.35797 15.71C6.93127 15.7167 6.51222 15.5963 6.15408 15.3643C5.79595 15.1322 5.51491 14.7989 5.34671 14.4067C5.1785 14.0145 5.13071 13.5811 5.20943 13.1617C5.28815 12.7422 5.48981 12.3557 5.78877 12.0511C6.08774 11.7466 6.47051 11.5379 6.88842 11.4514C7.30633 11.365 7.7405 11.4048 8.13574 11.5657C8.53098 11.7267 8.86943 12.0015 9.10806 12.3553C9.3467 12.7091 9.47474 13.1259 9.47591 13.5527C9.48091 14.1195 9.26063 14.6652 8.86349 15.0697C8.46635 15.4742 7.92484 15.7045 7.35797 15.71ZM7.35797 12.5321C7.15348 12.5254 6.95164 12.58 6.77838 12.6888C6.60513 12.7976 6.46836 12.9558 6.38565 13.1429C6.30295 13.3301 6.27807 13.5377 6.31423 13.7391C6.35038 13.9404 6.44592 14.1264 6.58856 14.2731C6.7312 14.4198 6.91443 14.5205 7.11473 14.5623C7.31503 14.604 7.52324 14.585 7.71262 14.5075C7.902 14.4301 8.06391 14.2978 8.17754 14.1276C8.29118 13.9575 8.35136 13.7573 8.35035 13.5527C8.35237 13.2862 8.24936 13.0297 8.06361 12.8387C7.87787 12.6477 7.62435 12.5376 7.35797 12.5321ZM15.1729 15.71C14.7462 15.7167 14.3271 15.5963 13.969 15.3643C13.6108 15.1322 13.3298 14.7989 13.1616 14.4067C12.9934 14.0145 12.9456 13.5811 13.0243 13.1617C13.103 12.7422 13.3047 12.3557 13.6037 12.0511C13.9026 11.7466 14.2854 11.5379 14.7033 11.4514C15.1212 11.365 15.5554 11.4048 15.9506 11.5657C16.3459 11.7267 16.6843 12.0015 16.923 12.3553C17.1616 12.7091 17.2896 13.1259 17.2908 13.5527C17.2958 14.1195 17.0755 14.6652 16.6784 15.0697C16.2812 15.4742 15.7397 15.7045 15.1729 15.71ZM15.1729 12.5321C14.9684 12.5254 14.7665 12.58 14.5933 12.6888C14.42 12.7976 14.2833 12.9558 14.2006 13.1429C14.1178 13.3301 14.093 13.5377 14.1291 13.7391C14.1653 13.9404 14.2608 14.1264 14.4035 14.2731C14.5461 14.4198 14.7293 14.5205 14.9296 14.5623C15.1299 14.604 15.3381 14.585 15.5275 14.5075C15.7169 14.4301 15.8788 14.2978 15.9924 14.1276C16.1061 13.9575 16.1663 13.7573 16.1652 13.5527C16.1673 13.2862 16.0643 13.0297 15.8785 12.8387C15.6928 12.6477 15.4392 12.5376 15.1729 12.5321Z" fill="white"/>
<path d="M15.7583 10.6581V10.9081H15.7585L15.7583 10.6581ZM6.15347 10.6581V10.4081H6.15336L6.15347 10.6581ZM16.0838 10.5541L16.2286 10.7579L16.2286 10.7579L16.0838 10.5541ZM16.2892 10.281L16.0533 10.1982L16.0532 10.1985L16.2892 10.281ZM18.8367 3.02112L18.601 2.93779L18.6008 2.93834L18.8367 3.02112ZM18.8635 2.75614L18.6159 2.79052L18.6159 2.79052L18.8635 2.75614ZM18.5646 2.33363L18.6795 2.11157L18.6795 2.11157L18.5646 2.33363ZM18.3058 2.27075V2.52075L18.306 2.52075L18.3058 2.27075ZM5.52666 2.43558L5.70344 2.61236H5.70344L5.52666 2.43558ZM5.52666 3.23148L5.34988 3.40825L5.34988 3.40825L5.52666 3.23148ZM17.5123 3.39631L17.7482 3.47904L17.8649 3.14631H17.5123V3.39631ZM15.3606 9.53251V9.78251H15.5379L15.5965 9.61524L15.3606 9.53251ZM6.56243 9.53251L6.32434 9.60875L6.37998 9.78251H6.56243V9.53251ZM4.3657 2.6722L4.12487 2.73989L4.12761 2.74844L4.3657 2.6722ZM3.27953 1.20521L3.41453 0.99466L3.40805 0.990775L3.27953 1.20521ZM1.29103 0.998859L1.35353 1.24092L1.35363 1.2409L1.29103 0.998859ZM0.946896 1.25796L1.16225 1.38493L0.946896 1.25796ZM0.886767 1.68451L0.644704 1.74701L0.886767 1.68451ZM1.14587 2.02865L1.0189 2.24401L1.0189 2.24401L1.14587 2.02865ZM1.57242 2.08878L1.63492 2.33084L1.63524 2.33076L1.57242 2.08878ZM3.28703 2.96672L3.04548 3.03158L3.04758 3.03856L3.28703 2.96672ZM3.29829 3.00424L3.0588 3.07609L3.06013 3.08028L3.29829 3.00424ZM5.61695 10.266L5.85517 10.1902L5.85511 10.19L5.61695 10.266ZM7.35797 15.71L7.35557 15.46L7.35405 15.46L7.35797 15.71ZM5.20943 13.1617L5.45514 13.2078L5.20943 13.1617ZM5.78877 12.0511L5.61038 11.876L5.78877 12.0511ZM8.13574 11.5657L8.04145 11.7973L8.13574 11.5657ZM9.10806 12.3553L8.9008 12.4951V12.4951L9.10806 12.3553ZM9.47591 13.5527L9.22591 13.5533L9.22592 13.5549L9.47591 13.5527ZM8.86349 15.0697L8.68509 14.8946L8.86349 15.0697ZM6.77838 12.6888L6.6454 12.4771L6.6454 12.4771L6.77838 12.6888ZM7.35797 12.5321L7.34975 12.782L7.35289 12.7821L7.35797 12.5321ZM6.38565 13.1429L6.15699 13.0419H6.15699L6.38565 13.1429ZM6.31423 13.7391L6.56029 13.6949L6.31423 13.7391ZM6.58856 14.2731L6.76779 14.0988H6.76779L6.58856 14.2731ZM7.71262 14.5075L7.80724 14.7389H7.80725L7.71262 14.5075ZM8.17754 14.1276L7.96965 13.9888L7.96965 13.9888L8.17754 14.1276ZM8.35035 13.5527L8.10033 13.5507L8.10035 13.5539L8.35035 13.5527ZM8.06361 12.8387L7.88438 13.013L7.88438 13.013L8.06361 12.8387ZM15.1729 15.71L15.1705 15.46L15.1689 15.46L15.1729 15.71ZM13.0243 13.1617L13.27 13.2078V13.2078L13.0243 13.1617ZM13.6037 12.0511L13.4253 11.876L13.6037 12.0511ZM15.9506 11.5657L15.8564 11.7973L15.9506 11.5657ZM16.923 12.3553L16.7157 12.4951L16.923 12.3553ZM17.2908 13.5527L17.0408 13.5533L17.0408 13.5549L17.2908 13.5527ZM16.6784 15.0697L16.5 14.8946L16.6784 15.0697ZM14.5933 12.6888L14.4603 12.4771V12.4771L14.5933 12.6888ZM15.1729 12.5321L15.1646 12.782L15.1678 12.7821L15.1729 12.5321ZM14.2006 13.1429L13.9719 13.0419L13.9719 13.0419L14.2006 13.1429ZM14.1291 13.7391L14.3752 13.6949V13.6949L14.1291 13.7391ZM14.4035 14.2731L14.2242 14.4474L14.4035 14.2731ZM15.5275 14.5075L15.6221 14.7389H15.6221L15.5275 14.5075ZM15.9924 14.1276L16.2003 14.2665L15.9924 14.1276ZM16.1652 13.5527L15.9152 13.5507L15.9152 13.5539L16.1652 13.5527ZM15.8785 12.8387L15.6993 13.013L15.6993 13.013L15.8785 12.8387ZM15.7583 10.4081H6.15347V10.9081H15.7583V10.4081ZM15.939 10.3503C15.8862 10.3878 15.823 10.408 15.7581 10.4081L15.7585 10.9081C15.9269 10.908 16.0912 10.8555 16.2286 10.7579L15.939 10.3503ZM16.0532 10.1985C16.0318 10.2597 15.9919 10.3128 15.939 10.3503L16.2286 10.7579C16.3659 10.6604 16.4696 10.5226 16.5252 10.3635L16.0532 10.1985ZM18.6008 2.93834L16.0533 10.1982L16.5251 10.3638L19.0726 3.1039L18.6008 2.93834ZM18.6159 2.79052C18.6228 2.84009 18.6177 2.8906 18.601 2.93779L19.0724 3.10446C19.1158 2.98183 19.1291 2.85059 19.1112 2.72175L18.6159 2.79052ZM18.5615 2.65288C18.5904 2.69373 18.609 2.74093 18.6159 2.79052L19.1112 2.72176C19.0933 2.59293 19.0447 2.47028 18.9696 2.36409L18.5615 2.65288ZM18.4498 2.5557C18.4943 2.57869 18.5325 2.61202 18.5615 2.65288L18.9696 2.36409C18.8945 2.25792 18.795 2.17132 18.6795 2.11157L18.4498 2.5557ZM18.306 2.52075C18.356 2.52072 18.4053 2.53271 18.4498 2.5557L18.6795 2.11157C18.5639 2.05182 18.4358 2.02068 18.3057 2.02075L18.306 2.52075ZM5.92461 2.52075H18.3058V2.02075H5.92461V2.52075ZM5.70344 2.61236C5.76209 2.5537 5.84165 2.52075 5.92461 2.52075V2.02075C5.70904 2.02075 5.50231 2.10638 5.34988 2.2588L5.70344 2.61236ZM5.61182 2.83353C5.61182 2.75057 5.64478 2.67102 5.70344 2.61236L5.34988 2.2588C5.19746 2.41123 5.11182 2.61796 5.11182 2.83353H5.61182ZM5.70344 3.0547C5.64478 2.99604 5.61182 2.91648 5.61182 2.83353H5.11182C5.11182 3.04909 5.19746 3.25583 5.34988 3.40825L5.70344 3.0547ZM5.92461 3.14631C5.84165 3.14631 5.76209 3.11336 5.70344 3.0547L5.34988 3.40825C5.50231 3.56068 5.70904 3.64631 5.92461 3.64631V3.14631ZM17.5123 3.14631H5.92461V3.64631H17.5123V3.14631ZM15.5965 9.61524L17.7482 3.47904L17.2764 3.31358L15.1247 9.44979L15.5965 9.61524ZM6.56243 9.78251H15.3606V9.28251H6.56243V9.78251ZM4.12761 2.74844L6.32434 9.60875L6.80052 9.45627L4.60379 2.59596L4.12761 2.74844ZM3.14459 1.41567C3.62253 1.72211 3.97139 2.19329 4.12503 2.73985L4.60637 2.60455C4.4196 1.9401 3.99549 1.36729 3.41447 0.994756L3.14459 1.41567ZM1.35363 1.2409C2.06511 1.05689 2.66311 1.12724 3.15101 1.41965L3.40805 0.990775C2.78164 0.615351 2.04022 0.546878 1.22844 0.756822L1.35363 1.2409ZM1.16225 1.38493C1.20439 1.31346 1.27319 1.26166 1.35353 1.24092L1.22854 0.756796C1.01981 0.810685 0.841031 0.945285 0.731541 1.13099L1.16225 1.38493ZM1.12883 1.62202C1.10809 1.54169 1.12011 1.4564 1.16225 1.38493L0.731541 1.13099C0.622051 1.31669 0.590815 1.53828 0.644704 1.74701L1.12883 1.62202ZM1.27284 1.8133C1.20137 1.77116 1.14957 1.70235 1.12883 1.62202L0.644704 1.74701C0.698594 1.95574 0.833194 2.13452 1.0189 2.24401L1.27284 1.8133ZM1.50993 1.84672C1.4296 1.86746 1.34431 1.85544 1.27284 1.8133L1.0189 2.24401C1.2046 2.3535 1.42619 2.38473 1.63492 2.33084L1.50993 1.84672ZM3.52848 2.90189C3.49672 2.78359 3.38285 2.42397 3.07495 2.13943C2.75061 1.8397 2.24602 1.65565 1.50961 1.8468L1.63524 2.33076C2.22137 2.17862 2.54688 2.33224 2.73561 2.50664C2.94078 2.69625 3.02295 2.94725 3.04559 3.03155L3.52848 2.90189ZM3.53775 2.9324L3.52649 2.89488L3.04758 3.03856L3.05883 3.07608L3.53775 2.9324ZM5.85511 10.19L3.53644 2.9282L3.06013 3.08028L5.3788 10.342L5.85511 10.19ZM5.96867 10.3478C5.91506 10.3087 5.87531 10.2534 5.85517 10.1902L5.37873 10.3418C5.43107 10.5062 5.53436 10.6497 5.67366 10.7515L5.96867 10.3478ZM6.15336 10.4081C6.08696 10.4081 6.02228 10.387 5.96867 10.3478L5.67366 10.7515C5.81297 10.8533 5.98105 10.9082 6.15359 10.9081L6.15336 10.4081ZM6.01813 15.5741C6.41787 15.8331 6.88562 15.9674 7.3619 15.96L7.35405 15.46C6.97693 15.4659 6.60656 15.3596 6.29004 15.1545L6.01813 15.5741ZM5.11694 14.5052C5.3047 14.943 5.61838 15.315 6.01813 15.5741L6.29004 15.1545C5.97351 14.9494 5.72513 14.6548 5.57647 14.3081L5.11694 14.5052ZM4.96372 13.1155C4.87586 13.5837 4.92919 14.0674 5.11694 14.5052L5.57647 14.3081C5.4278 13.9615 5.38557 13.5785 5.45514 13.2078L4.96372 13.1155ZM5.61038 11.876C5.27667 12.2159 5.05158 12.6474 4.96372 13.1155L5.45514 13.2078C5.52471 12.8371 5.70294 12.4954 5.96717 12.2263L5.61038 11.876ZM6.83779 11.2066C6.37132 11.3031 5.94408 11.5361 5.61038 11.876L5.96717 12.2263C6.2314 11.9571 6.5697 11.7726 6.93905 11.6963L6.83779 11.2066ZM8.23003 11.3342C7.78887 11.1546 7.30425 11.1101 6.83779 11.2066L6.93905 11.6963C7.30841 11.6199 7.69213 11.655 8.04145 11.7973L8.23003 11.3342ZM9.31532 12.2155C9.04896 11.8206 8.67119 11.5139 8.23003 11.3342L8.04145 11.7973C8.39077 11.9395 8.6899 12.1824 8.9008 12.4951L9.31532 12.2155ZM9.72591 13.552C9.72461 13.0756 9.58169 12.6104 9.31532 12.2155L8.9008 12.4951C9.11171 12.8078 9.22488 13.1762 9.22591 13.5533L9.72591 13.552ZM9.04189 15.2449C9.48546 14.793 9.73148 14.1836 9.7259 13.5504L9.22592 13.5549C9.23033 14.0555 9.03581 14.5373 8.68509 14.8946L9.04189 15.2449ZM7.36038 15.96C7.99351 15.9539 8.59832 15.6967 9.04189 15.2449L8.68509 14.8946C8.33438 15.2518 7.85617 15.4552 7.35557 15.46L7.36038 15.96ZM6.91137 12.9005C7.04241 12.8182 7.19508 12.7769 7.34975 12.782L7.3662 12.2823C7.11188 12.2739 6.86087 12.3418 6.6454 12.4771L6.91137 12.9005ZM6.61432 13.244C6.67688 13.1024 6.78032 12.9828 6.91137 12.9005L6.6454 12.4771C6.42993 12.6125 6.25985 12.8091 6.15699 13.0419L6.61432 13.244ZM6.56029 13.6949C6.53295 13.5426 6.55176 13.3855 6.61432 13.244L6.15699 13.0419C6.05413 13.2746 6.0232 13.5328 6.06816 13.7832L6.56029 13.6949ZM6.76779 14.0988C6.6599 13.9879 6.58764 13.8472 6.56029 13.6949L6.06816 13.7832C6.11312 14.0337 6.23193 14.265 6.40933 14.4474L6.76779 14.0988ZM7.16577 14.3175C7.01427 14.2859 6.87568 14.2098 6.76779 14.0988L6.40933 14.4474C6.58672 14.6298 6.8146 14.755 7.06369 14.807L7.16577 14.3175ZM7.61799 14.2761C7.47475 14.3347 7.31727 14.3491 7.16577 14.3175L7.06369 14.807C7.31279 14.8589 7.57172 14.8352 7.80724 14.7389L7.61799 14.2761ZM7.96965 13.9888C7.8837 14.1175 7.76124 14.2175 7.61799 14.2761L7.80725 14.7389C8.04277 14.6426 8.24412 14.4781 8.38544 14.2665L7.96965 13.9888ZM8.10035 13.5539C8.10111 13.7086 8.0556 13.8601 7.96965 13.9888L8.38544 14.2665C8.52676 14.0549 8.6016 13.8059 8.60034 13.5514L8.10035 13.5539ZM7.88438 13.013C8.02429 13.1569 8.10188 13.3501 8.10035 13.5507L8.60034 13.5546C8.60287 13.2224 8.47443 12.9026 8.24284 12.6644L7.88438 13.013ZM7.35289 12.7821C7.55353 12.7862 7.74448 12.8691 7.88438 13.013L8.24285 12.6644C8.01126 12.4263 7.69518 12.2889 7.36306 12.2822L7.35289 12.7821ZM13.833 15.5741C14.2328 15.8331 14.7005 15.9674 15.1768 15.96L15.1689 15.46C14.7918 15.4659 14.4215 15.3596 14.1049 15.1545L13.833 15.5741ZM12.9318 14.5052C13.1196 14.943 13.4333 15.315 13.833 15.5741L14.1049 15.1545C13.7884 14.9494 13.54 14.6548 13.3914 14.3081L12.9318 14.5052ZM12.7786 13.1155C12.6908 13.5837 12.7441 14.0674 12.9318 14.5052L13.3914 14.3081C13.2427 13.9615 13.2005 13.5785 13.27 13.2078L12.7786 13.1155ZM13.4253 11.876C13.0916 12.2159 12.8665 12.6474 12.7786 13.1155L13.27 13.2078C13.3396 12.8371 13.5178 12.4954 13.7821 12.2263L13.4253 11.876ZM14.6527 11.2066C14.1862 11.3031 13.759 11.5361 13.4253 11.876L13.7821 12.2263C14.0463 11.9571 14.3846 11.7726 14.754 11.6963L14.6527 11.2066ZM16.0449 11.3342C15.6038 11.1546 15.1191 11.1101 14.6527 11.2066L14.754 11.6963C15.1233 11.6199 15.507 11.655 15.8564 11.7973L16.0449 11.3342ZM17.1302 12.2155C16.8639 11.8206 16.4861 11.5139 16.0449 11.3342L15.8564 11.7973C16.2057 11.9395 16.5048 12.1824 16.7157 12.4951L17.1302 12.2155ZM17.5408 13.552C17.5395 13.0756 17.3966 12.6104 17.1302 12.2155L16.7157 12.4951C16.9266 12.8078 17.0398 13.1762 17.0408 13.5533L17.5408 13.552ZM16.8568 15.2449C17.3004 14.793 17.5464 14.1836 17.5408 13.5504L17.0408 13.5549C17.0452 14.0555 16.8507 14.5373 16.5 14.8946L16.8568 15.2449ZM15.1753 15.96C15.8084 15.9539 16.4132 15.6967 16.8568 15.2449L16.5 14.8946C16.1493 15.2518 15.6711 15.4552 15.1705 15.46L15.1753 15.96ZM14.7263 12.9005C14.8573 12.8182 15.01 12.7769 15.1646 12.782L15.1811 12.2823C14.9268 12.2739 14.6758 12.3418 14.4603 12.4771L14.7263 12.9005ZM14.4292 13.244C14.4918 13.1024 14.5952 12.9828 14.7263 12.9005L14.4603 12.4771C14.2448 12.6125 14.0747 12.8091 13.9719 13.0419L14.4292 13.244ZM14.3752 13.6949C14.3478 13.5426 14.3667 13.3855 14.4292 13.244L13.9719 13.0419C13.869 13.2746 13.8381 13.5328 13.8831 13.7832L14.3752 13.6949ZM14.5827 14.0988C14.4748 13.9879 14.4025 13.8472 14.3752 13.6949L13.8831 13.7832C13.928 14.0337 14.0468 14.265 14.2242 14.4474L14.5827 14.0988ZM14.9807 14.3175C14.8292 14.2859 14.6906 14.2098 14.5827 14.0988L14.2242 14.4474C14.4016 14.6298 14.6295 14.755 14.8786 14.807L14.9807 14.3175ZM15.4329 14.2761C15.2896 14.3347 15.1322 14.3491 14.9807 14.3175L14.8786 14.807C15.1277 14.8589 15.3866 14.8352 15.6221 14.7389L15.4329 14.2761ZM15.7845 13.9888C15.6986 14.1175 15.5761 14.2175 15.4329 14.2761L15.6221 14.7389C15.8577 14.6426 16.059 14.4781 16.2003 14.2665L15.7845 13.9888ZM15.9152 13.5539C15.916 13.7086 15.8705 13.8601 15.7845 13.9888L16.2003 14.2665C16.3417 14.0549 16.4165 13.8059 16.4152 13.5514L15.9152 13.5539ZM15.6993 13.013C15.8392 13.1569 15.9168 13.3501 15.9153 13.5507L16.4152 13.5546C16.4178 13.2224 16.2893 12.9026 16.0577 12.6644L15.6993 13.013ZM15.1678 12.7821C15.3684 12.7862 15.5594 12.8691 15.6993 13.013L16.0577 12.6644C15.8262 12.4263 15.5101 12.2889 15.178 12.2822L15.1678 12.7821Z" fill="white"/>
</svg>
